<?xml version="1.0" encoding="utf-8"?>
<!-- Generator: Adobe Illustrator 20.1.0, SVG Export Plug-In . SVG Version: 6.00 Build 0)  -->
<svg version="1.1" id="Layer_1" xmlns="http://www.w3.org/2000/svg" xmlns:xlink="http://www.w3.org/1999/xlink" x="0px" y="0px"
	 viewBox="0 0 800 150" style="enable-background:new 0 0 800 150;" xml:space="preserve">
<style type="text/css">
	.st0{fill:#B31B16;}
	.st1{fill:none;}
	.st2{fill:#EF0707;stroke:#000000;stroke-width:2;stroke-miterlimit:10;}
	.st3{font-family:'Arial-Black';}
	.st4{font-size:36px;}
</style>
<path d="M718.2,46.1l-11.6,12.2h-16.7l-6.2,34.6h-14.5l6.1-34.6h-22L665,46.1L718.2,46.1L718.2,46.1z"/>
<path d="M642.8,92.9h-14.4l3.2-18.1h-27.9l-3.2,18.1H586l8.3-46.8h14.5l-3,16.6h27.9l2.9-16.6h14.5L642.8,92.9z"/>
<path d="M552.9,63.6h30l-5.2,29.3h-32.1c-3.6,0-7-0.5-10-1.6s-5.6-2.5-7.7-4.3c-2.1-1.8-3.8-4-4.9-6.5c-1.2-2.5-1.8-5.2-1.8-8.2
	c0-3.8,0.9-7.3,2.6-10.6c1.7-3.2,4.1-6,7-8.3c2.9-2.3,6.4-4.1,10.4-5.4s8.2-1.9,12.7-1.9h33.5l-11.5,12.2h-24.2
	c-2.1,0-4.2,0.3-6.1,1c-1.9,0.7-3.6,1.6-5.1,2.7c-1.4,1.2-2.6,2.5-3.5,4.1c-0.9,1.6-1.3,3.3-1.3,5.2c0,2.9,1.1,5.3,3.3,7
	c2.2,1.7,5.1,2.6,8.7,2.6h17.8l1.2-6.8h-24.3L552.9,63.6z"/>
<path d="M509.8,92.9h-14.5l8.3-46.8H518L509.8,92.9z"/>
<path d="M492.4,80.8l-11.6,12h-41.4l8.3-46.8h14.4l-6.2,34.8H492.4z"/>
<path d="M443.9,39.4l-13.1,13.9h-32.7l-1.2,7h40.3l-12.3,13h-30.3l-3.4,19.6h-16.6l9.5-53.5H443.9z"/>
<path class="st0" d="M371.1,80.8l-11.5,12h-45.1l8.3-46.8h54.2l-11.5,12.2h-30.3l-1,5.6h37l-10.1,10.6h-28.8l-1.1,6.4L371.1,80.8
	L371.1,80.8z"/>
<path d="M360.3,94.4h-47.5l8.9-49.8h58.9l-14.4,15.2h-29.7l-0.5,2.6h38.7L361.8,76h-28.2l-0.6,3.4h41.6L360.3,94.4z M316.4,91.4H359
	l8.6-9h-38.2l1.6-9.4h29.5l7.2-7.6h-35.3l1.5-8.6h30.9l8.7-9.2h-49.4L316.4,91.4z"/>
<path class="st0" d="M311.6,80.8l-11.4,12h-23.5c-3.6,0-7-0.5-10-1.6c-3-1.1-5.6-2.5-7.7-4.3c-2.1-1.8-3.8-4-4.9-6.5
	c-1.2-2.5-1.8-5.2-1.8-8.2c0-3.8,0.9-7.3,2.6-10.6s4.1-6,7-8.3c2.9-2.3,6.4-4.1,10.4-5.4c4-1.3,8.2-1.9,12.7-1.9h32.8l-11.5,12.2
	h-23.5c-2.1,0-4.2,0.3-6.1,1c-1.9,0.7-3.6,1.6-5.1,2.7c-1.4,1.2-2.6,2.5-3.4,4.1c-0.8,1.6-1.3,3.3-1.3,5.1c0,1.4,0.3,2.8,0.9,4
	c0.6,1.2,1.4,2.2,2.4,3c1.1,0.8,2.3,1.5,3.7,2c1.4,0.5,3.1,0.7,4.8,0.7H311.6z"/>
<path d="M300.9,94.4h-24.2c-3.8,0-7.3-0.6-10.5-1.7c-3.2-1.1-5.9-2.7-8.2-4.6c-2.3-2-4.1-4.3-5.3-7c-1.3-2.7-1.9-5.7-1.9-8.8
	c0-4.1,0.9-7.9,2.8-11.3c1.8-3.4,4.3-6.3,7.4-8.8c3.1-2.4,6.7-4.3,10.8-5.6c4.1-1.3,8.5-2,13.1-2h36.3L307,59.7h-24.2
	c-2,0-3.9,0.3-5.6,0.9c-1.8,0.6-3.3,1.4-4.6,2.5c-1.3,1-2.3,2.3-3,3.6c-0.7,1.4-1.1,2.8-1.1,4.4c0,1.2,0.2,2.3,0.7,3.3
	c0.5,1,1.2,1.8,2,2.5c0.9,0.7,2,1.3,3.3,1.7c1.3,0.4,2.8,0.6,4.4,0.6h36.3L300.9,94.4z M285,47.6c-4.3,0-8.4,0.6-12.2,1.9
	c-3.8,1.2-7.1,3-9.9,5.1c-2.8,2.2-5,4.8-6.6,7.8c-1.6,3-2.4,6.3-2.4,9.9c0,2.7,0.5,5.3,1.6,7.6c1.1,2.3,2.6,4.3,4.6,6
	c2,1.7,4.4,3.1,7.2,4.1c2.8,1,6,1.5,9.5,1.5h22.9l8.6-9h-29.3c-1.9,0-3.7-0.3-5.3-0.8c-1.6-0.5-3-1.3-4.2-2.2
	c-1.2-1-2.2-2.2-2.9-3.6c-0.7-1.4-1-2.9-1-4.6c0-2.1,0.5-4.1,1.4-5.9c0.9-1.7,2.2-3.3,3.8-4.6c1.6-1.3,3.4-2.3,5.5-3
	c2.1-0.7,4.3-1.1,6.6-1.1h22.9l8.7-9.2L285,47.6L285,47.6z"/>
<path class="st0" d="M197.5,92.9l10.9-12h11.7c1.4,0,2.9,0,4.4,0c1.5,0,2.8,0,3.9,0.1c-0.5-0.8-1.1-1.9-1.8-3.2
	c-0.7-1.3-1.3-2.5-1.8-3.6l-6.2-12.4l-27.4,31.1h-17.1l37.5-42.3c1.2-1.4,2.7-2.6,4.3-3.6c1.7-1.1,3.7-1.6,5.9-1.6
	c2.2,0,3.9,0.5,5.2,1.5c1.3,1,2.3,2.3,3.1,3.7L252,92.9C252,92.9,197.5,92.9,197.5,92.9z"/>
<path d="M254.4,94.4h-60.3l13.6-15h16.8c0.4,0,0.9,0,1.3,0c-0.1-0.3-0.3-0.6-0.5-0.9c-0.7-1.3-1.3-2.5-1.8-3.6l-5.2-10.4l-26.4,29.9
	h-21.2l39.7-44.8c1.3-1.5,2.9-2.8,4.7-3.9c1.9-1.2,4.2-1.8,6.8-1.8c2.5,0,4.6,0.6,6.1,1.8c1.4,1.1,2.6,2.6,3.5,4.2L254.4,94.4z
	 M200.9,91.4h48.6l-20.6-40.2c-0.7-1.3-1.6-2.4-2.7-3.2c-1-0.8-2.5-1.2-4.3-1.2c-2,0-3.7,0.4-5.1,1.4c-1.6,1-2.9,2.1-4,3.4
	l-35.3,39.8h13.1L219,59.2l7.2,14.4c0.6,1.1,1.2,2.3,1.8,3.6c0.6,1.2,1.2,2.3,1.7,3.1l1.5,2.5l-2.9-0.2c-1.1-0.1-2.4-0.1-3.8-0.1
	h-15.4L200.9,91.4z"/>
<path class="st0" d="M172.4,92.9h-22.2l-9.4-14.2h-25.4l-2.5,14.2H96.3l4.8-27.4h46.6c1.4,0,2.7-0.2,4-0.5c1.3-0.3,2.3-0.8,3.3-1.4
	c0.9-0.6,1.7-1.3,2.2-2.2s0.8-1.9,0.8-2.9c0-1.8-0.7-3.1-2.2-4c-1.4-0.9-3.4-1.3-6-1.3h-46.6l13.3-13.9H151c2.8,0,5.6,0.2,8.5,0.7
	c2.9,0.5,5.5,1.3,7.9,2.6c2.4,1.3,4.3,2.9,5.8,5c1.5,2.1,2.2,4.7,2.2,7.9c0,2.4-0.4,4.7-1.2,6.9c-0.8,2.2-2,4.2-3.5,5.9
	c-1.5,1.8-3.3,3.3-5.5,4.5c-2.1,1.2-4.5,2.1-7,2.6c0.7,0.7,1.6,1.6,2.5,2.6c0.9,1.1,2.1,2.5,3.6,4.4L172.4,92.9z"/>
<path d="M175.5,94.4h-26L140,80.2h-23.4l-2.5,14.2H94.6L99.9,64h47.8c1.3,0,2.5-0.1,3.6-0.4c1.1-0.3,2.1-0.7,2.9-1.2
	c0.8-0.5,1.3-1,1.8-1.7c0.4-0.6,0.6-1.3,0.6-2.1c0-1.2-0.4-2.1-1.4-2.7c-1.2-0.7-2.9-1.1-5.2-1.1H99.8l16.1-16.9h35
	c2.8,0,5.8,0.2,8.8,0.7c3.1,0.5,5.9,1.4,8.4,2.8c2.6,1.4,4.7,3.2,6.3,5.5c1.7,2.3,2.5,5.3,2.5,8.8c0,2.6-0.4,5.1-1.3,7.4
	c-0.9,2.3-2.2,4.5-3.8,6.4c-1.6,1.9-3.6,3.5-5.9,4.8c-1.5,0.9-3.1,1.6-4.9,2.1c0.2,0.3,0.5,0.5,0.7,0.8c0.9,1.1,2.2,2.6,3.7,4.4
	L175.5,94.4z M151.1,91.4h18.3l-6.2-8c-1.5-1.8-2.7-3.3-3.6-4.3c-0.9-1-1.7-1.9-2.4-2.5l-2.2-2l2.9-0.5c2.4-0.4,4.6-1.2,6.6-2.4
	c2-1.1,3.7-2.5,5.1-4.2c1.4-1.6,2.5-3.5,3.3-5.5c0.8-2,1.1-4.1,1.1-6.3c0-2.9-0.7-5.2-2-7c-1.4-1.9-3.1-3.4-5.3-4.5
	c-2.2-1.2-4.7-2-7.5-2.4c-2.8-0.5-5.6-0.7-8.3-0.7h-33.8l-10.4,10.9h43.1c2.9,0,5.1,0.5,6.8,1.5c1.9,1.1,2.9,3,2.9,5.2
	c0,1.4-0.4,2.6-1.1,3.7c-0.7,1.1-1.6,2-2.7,2.7c-1.1,0.7-2.3,1.2-3.7,1.5c-1.4,0.3-2.8,0.5-4.3,0.5h-45.3l-4.3,24.4h13.5l2.5-14.2
	h27.5L151.1,91.4z"/>
<polygon points="98.1,112.4 606.7,112.4 618.6,105.5 110,105.5 "/>
<rect x="627.4" y="96" class="st1" width="150" height="43.5"/>
<text transform="matrix(1 0 0 1 627.3981 121.8164)" class="st2 st3 st4">ONE</text>
</svg>
